<?xml version="1.0" standalone="no"?>
<!DOCTYPE svg PUBLIC "-//W3C//DTD SVG 20010904//EN"
 "http://www.w3.org/TR/2001/REC-SVG-20010904/DTD/svg10.dtd">
<svg version="1.0" xmlns="http://www.w3.org/2000/svg"
 width="1521.000000pt" height="1521.000000pt" viewBox="0 0 1521.000000 1521.000000"
 preserveAspectRatio="xMidYMid meet">
<metadata>
Created by potrace 1.14, written by Peter Selinger 2001-2017
</metadata>
<g transform="translate(0.000000,1521.000000) scale(0.100000,-0.100000)"
fill="#000000" stroke="none">
<path d="M6679 15196 c-2 -2 -56 -6 -119 -9 -63 -3 -131 -8 -150 -11 -89 -13
-110 -18 -110 -26 0 -4 -9 -6 -20 -3 -11 3 -27 0 -35 -7 -8 -7 -21 -10 -30 -7
-8 4 -17 2 -20 -2 -2 -5 -21 -12 -40 -15 -20 -4 -63 -16 -97 -27 -34 -10 -71
-21 -82 -23 -58 -12 -419 -122 -616 -187 -88 -29 -244 -84 -307 -108 -29 -10
-53 -17 -53 -14 0 4 -8 -1 -17 -9 -10 -8 -42 -25 -71 -37 -68 -28 -146 -75
-199 -117 -23 -19 -45 -34 -49 -34 -8 0 -55 -50 -94 -100 -14 -17 -35 -43 -47
-56 -13 -14 -23 -32 -23 -40 0 -7 -6 -14 -14 -14 -8 0 -17 -8 -20 -17 -3 -10
-22 -35 -41 -55 -19 -20 -35 -42 -35 -49 0 -6 -10 -20 -22 -30 -16 -14 -24
-16 -35 -8 -7 6 -13 17 -13 23 -1 14 -129 107 -167 121 -16 6 -39 17 -53 25
-37 22 -231 19 -269 -4 -7 -4 -15 -5 -18 -2 -3 3 -15 -1 -27 -9 -11 -8 -31
-15 -43 -15 -13 0 -23 -4 -23 -10 0 -5 -7 -10 -16 -10 -9 0 -28 -8 -42 -17
-46 -30 -66 -43 -82 -50 -17 -8 -14 -5 -96 -73 -34 -27 -65 -50 -69 -50 -4 0
-29 -18 -55 -40 -26 -22 -51 -40 -54 -40 -10 0 -79 -81 -111 -130 -48 -75 -55
-89 -55 -109 0 -10 -7 -35 -15 -55 -9 -20 -13 -41 -10 -46 3 -5 -2 -19 -13
-30 -16 -18 -19 -38 -20 -161 0 -78 3 -149 8 -158 4 -9 13 -47 18 -86 6 -38
15 -92 22 -120 19 -85 34 -245 45 -485 2 -47 7 -124 11 -171 5 -71 3 -88 -10
-102 -9 -8 -16 -18 -16 -21 0 -5 -38 -48 -116 -132 -23 -24 -39 -46 -36 -49 3
-2 -2 -7 -11 -11 -9 -3 -28 -29 -43 -57 -14 -29 -32 -59 -38 -67 -7 -8 -23
-35 -35 -60 -13 -25 -35 -61 -49 -80 -15 -19 -35 -51 -45 -70 -11 -19 -32 -52
-48 -72 -16 -20 -29 -40 -29 -44 0 -4 -13 -29 -30 -55 -16 -27 -26 -49 -22
-49 4 0 2 -4 -4 -8 -13 -9 -78 -143 -94 -197 -7 -22 -17 -46 -23 -53 -5 -7 -7
-15 -4 -19 4 -3 3 -11 -2 -17 -9 -12 -39 -99 -46 -137 -3 -13 -8 -40 -11 -59
-4 -19 -8 -44 -10 -55 -2 -11 -6 -42 -9 -70 -3 -27 -10 -66 -15 -85 -6 -19
-10 -48 -10 -63 0 -20 -4 -26 -12 -21 -10 5 -10 4 -1 -6 8 -9 9 -20 2 -39 -6
-14 -10 -27 -10 -28 1 -2 1 -4 0 -5 -2 -6 -9 -94 -9 -116 0 -13 -6 -35 -13
-50 -8 -16 -12 -45 -9 -71 3 -35 2 -42 -9 -36 -11 6 -11 5 -3 -4 8 -9 9 -24 1
-54 -5 -23 -11 -58 -13 -77 -1 -19 -5 -51 -8 -70 -3 -19 -7 -41 -8 -47 -1 -7
-4 -13 -7 -13 -3 0 -7 -28 -9 -62 -2 -34 -6 -66 -9 -71 -3 -6 -7 -26 -9 -45
-2 -18 -8 -40 -15 -48 -9 -11 -8 -18 1 -29 9 -11 9 -15 1 -15 -7 0 -10 -10 -7
-24 2 -13 2 -27 -1 -30 -4 -3 -8 -20 -10 -38 -2 -17 -8 -37 -14 -44 -6 -7 -6
-13 0 -16 6 -2 6 -19 0 -48 -6 -25 -10 -53 -10 -62 0 -10 -5 -21 -11 -24 -7
-4 -6 -9 2 -14 9 -5 8 -23 -5 -73 -9 -37 -14 -71 -10 -77 3 -5 2 -10 -3 -10
-5 0 -8 -68 -7 -157 2 -87 4 -158 5 -158 1 0 3 -22 4 -50 4 -77 15 -180 33
-297 l16 -107 -76 -153 c-82 -166 -177 -372 -177 -385 0 -4 -11 -30 -25 -57
-14 -27 -25 -57 -25 -66 0 -9 -4 -20 -8 -26 -5 -5 -13 -27 -20 -49 -6 -22 -21
-74 -33 -115 -12 -41 -22 -94 -22 -118 1 -23 -3 -44 -8 -47 -4 -3 -6 -12 -2
-20 3 -10 -1 -15 -13 -15 -18 -1 -18 -1 0 -15 16 -12 17 -17 5 -31 -7 -9 -14
-25 -16 -37 -2 -11 -8 -26 -14 -34 -9 -10 -8 -13 3 -13 11 0 14 -7 10 -25 -2
-14 -9 -25 -14 -25 -5 0 -8 -8 -6 -17 1 -10 -1 -24 -5 -30 -6 -9 -2 -13 10
-13 16 -1 16 -2 3 -13 -15 -12 -22 -90 -21 -242 0 -27 -5 -55 -11 -62 -6 -7
-7 -13 -2 -13 7 0 10 -152 4 -185 -2 -6 -2 -12 -1 -15 1 -3 4 -54 6 -115 5
-102 7 -132 19 -239 10 -83 18 -116 29 -116 8 0 7 -4 -2 -9 -11 -7 -11 -13 3
-32 9 -13 16 -29 16 -37 0 -7 11 -25 25 -40 14 -15 25 -30 25 -34 0 -16 69
-114 89 -126 24 -14 27 -52 10 -117 -13 -53 -17 -72 -24 -120 -4 -22 -10 -62
-16 -90 -5 -27 -11 -60 -13 -73 -2 -12 -6 -25 -9 -28 -3 -3 -2 -16 3 -29 5
-13 6 -26 2 -29 -3 -4 -8 -30 -9 -59 -5 -89 -10 -172 -12 -180 0 -5 -5 -5 -11
-2 -5 3 -10 1 -10 -4 0 -6 5 -11 11 -11 8 0 9 -11 4 -32 -4 -18 -9 -51 -12
-73 -3 -22 -9 -42 -12 -45 -16 -11 -20 -40 -6 -40 8 0 15 -4 15 -10 0 -5 -4
-10 -9 -10 -5 0 -8 -13 -6 -30 2 -17 -2 -36 -11 -44 -18 -18 -18 -26 0 -26 11
0 13 -7 6 -32 -8 -32 -20 -119 -25 -186 -1 -18 -5 -35 -8 -38 -3 -3 -1 -18 3
-34 4 -16 6 -31 3 -34 -4 -3 -7 -62 -8 -131 -1 -69 -5 -129 -9 -132 -3 -3 -1
-12 5 -20 9 -10 8 -13 -1 -13 -9 0 -11 -15 -8 -55 3 -30 1 -52 -4 -49 -4 3 -8
-2 -8 -10 0 -9 5 -16 10 -16 7 0 7 -6 2 -17 -5 -10 -7 -23 -5 -30 2 -6 -1 -14
-6 -18 -6 -3 -11 -12 -11 -18 0 -7 4 -6 10 3 6 9 10 10 10 3 0 -6 -4 -14 -9
-17 -4 -3 -6 -17 -3 -31 2 -15 0 -25 -7 -25 -7 0 -9 -9 -5 -25 3 -14 2 -31 -4
-38 -6 -6 -8 -27 -6 -45 2 -18 -4 -65 -12 -105 -17 -75 -36 -168 -56 -274 -7
-35 -15 -63 -18 -63 -3 0 -5 -16 -4 -35 1 -20 -4 -42 -12 -50 -9 -9 -10 -16
-4 -20 6 -4 8 -11 4 -16 -3 -5 -8 -22 -10 -37 -3 -15 -9 -28 -15 -30 -5 -2 -6
-21 -3 -43 5 -29 3 -39 -7 -39 -11 0 -11 -2 -1 -8 14 -9 6 -42 -10 -42 -6 0
-6 -6 1 -14 9 -11 9 -15 -1 -19 -10 -4 -10 -6 1 -6 11 -1 11 -4 1 -16 -16 -19
-23 -195 -10 -265 6 -30 13 -73 16 -95 3 -21 8 -43 10 -47 3 -5 8 -21 10 -35
3 -15 14 -42 25 -59 10 -17 19 -38 19 -45 0 -8 11 -38 25 -67 13 -29 25 -56
26 -60 0 -4 12 -26 26 -49 14 -24 21 -43 16 -43 -4 0 -3 -4 3 -8 12 -7 32 -42
103 -176 20 -38 44 -78 53 -88 10 -10 27 -38 39 -63 12 -25 28 -45 36 -45 8 0
11 -5 7 -12 -4 -6 0 -16 8 -22 17 -13 43 -57 40 -68 -1 -5 3 -8 8 -8 6 0 10
-6 10 -13 0 -7 8 -22 18 -33 10 -10 25 -34 32 -51 8 -18 18 -33 22 -33 5 0 8
-7 8 -15 0 -9 10 -26 21 -38 12 -12 28 -37 35 -55 8 -17 19 -32 25 -32 5 0 7
-5 4 -10 -4 -6 4 -22 17 -35 13 -13 39 -50 58 -84 19 -33 45 -64 58 -70 12 -6
22 -16 22 -22 0 -7 10 -22 23 -34 12 -12 45 -47 73 -76 66 -70 135 -129 151
-129 7 0 13 -4 13 -10 0 -5 6 -10 14 -10 8 0 16 -7 20 -15 3 -8 12 -15 21 -15
8 0 15 -4 15 -10 0 -5 9 -10 20 -10 11 0 20 -4 20 -9 0 -5 9 -13 20 -16 11 -4
18 -11 15 -16 -4 -5 2 -9 13 -9 10 0 27 -9 37 -20 10 -11 26 -20 37 -20 10 0
18 -4 18 -9 0 -5 15 -15 33 -22 17 -7 37 -18 43 -24 6 -5 22 -17 34 -25 13 -8
43 -30 67 -47 24 -18 48 -33 53 -33 6 0 10 -5 10 -10 0 -6 8 -13 18 -17 22 -8
116 -74 120 -85 2 -4 8 -8 14 -8 5 0 39 -19 75 -42 35 -24 68 -43 72 -43 5 0
23 -12 42 -28 18 -15 36 -27 41 -27 4 0 40 -15 80 -34 84 -38 217 -77 368
-107 58 -11 116 -23 130 -26 14 -2 39 -6 56 -7 16 -1 35 -6 41 -9 6 -4 24 -9
40 -11 15 -2 73 -16 128 -30 55 -15 115 -29 133 -31 18 -2 37 -7 41 -10 12 -7
101 -24 161 -31 52 -5 139 -21 191 -35 20 -5 60 -12 89 -15 29 -3 74 -10 99
-15 173 -33 210 -39 268 -44 35 -2 68 -7 72 -9 7 -5 105 -12 311 -21 111 -5
304 -28 460 -55 30 -6 75 -12 100 -15 69 -9 95 -12 235 -34 72 -11 156 -23
188 -26 32 -2 66 -9 75 -14 15 -8 38 -12 152 -27 19 -3 42 -7 50 -10 8 -3 31
-7 50 -10 19 -2 80 -10 135 -18 304 -45 382 -51 670 -50 264 2 338 6 500 29
55 8 145 17 200 20 204 11 227 17 355 90 58 33 327 320 410 438 18 26 37 47
42 47 4 0 8 6 8 14 0 8 11 28 25 44 14 17 25 34 25 40 0 5 7 16 16 23 20 17
52 86 74 159 l17 55 104 2 c57 0 122 4 144 8 65 10 173 46 186 61 6 8 15 14
20 14 24 0 170 119 245 200 33 34 77 82 99 105 22 23 50 55 62 71 12 16 32 41
43 56 11 14 20 31 20 37 0 6 4 11 9 11 5 0 39 60 76 134 41 83 76 141 91 151
30 20 88 74 199 185 125 126 124 125 157 177 16 26 39 58 51 70 11 13 17 23
12 23 -4 0 0 9 10 20 10 11 15 20 11 20 -4 0 -1 12 8 27 57 108 70 149 70 218
0 39 -6 92 -13 118 -11 37 -11 57 -3 85 17 59 21 82 13 87 -5 2 -7 21 -5 42 1
24 -5 50 -17 69 -10 17 -19 38 -19 46 0 8 -18 27 -40 44 -38 27 -40 31 -36 69
20 152 23 207 15 275 -5 41 -9 116 -9 165 0 118 0 120 -12 193 -6 34 -14 62
-19 62 -5 0 -9 8 -9 17 0 9 -28 73 -62 142 -34 69 -63 131 -63 136 0 6 -8 19
-17 29 -10 10 -15 23 -12 28 3 4 0 8 -5 8 -6 0 -11 6 -11 14 0 7 -9 25 -20 38
-10 14 -16 29 -12 32 4 4 -1 12 -12 18 -22 12 -17 48 20 153 27 76 108 240
130 266 8 8 14 19 14 24 0 4 18 34 40 66 22 32 40 63 40 67 0 5 9 17 20 27 11
10 20 22 20 26 0 4 21 43 47 86 42 72 60 104 137 248 30 56 46 76 46 56 0 -7
3 -10 8 -8 4 3 30 -21 57 -53 28 -32 56 -59 63 -59 6 -1 12 -4 12 -9 0 -4 30
-22 68 -41 105 -52 126 -61 147 -65 11 -2 32 -9 46 -14 14 -6 50 -13 80 -17
30 -4 61 -10 69 -15 17 -8 331 -5 398 4 24 3 52 11 63 16 10 6 19 9 19 6 0
-10 199 74 242 103 25 17 49 31 53 31 8 0 76 52 120 91 81 72 275 271 275 283
0 7 6 16 14 19 8 3 20 17 28 30 7 13 25 47 40 75 15 28 32 53 37 56 5 3 17 32
27 64 10 31 23 66 30 77 7 11 17 38 23 60 5 22 21 72 35 112 15 40 25 76 24
80 -1 4 3 31 10 58 30 121 39 245 37 490 -2 214 -10 460 -15 460 -1 0 -3 23
-4 50 -1 28 -7 59 -13 71 -9 16 -9 24 -1 32 9 9 9 12 0 12 -7 0 -12 11 -12 25
0 26 -24 108 -40 137 -6 10 -10 29 -10 43 0 14 -4 25 -10 25 -5 0 -10 11 -10
25 0 14 -7 28 -15 31 -10 4 -13 13 -10 25 4 11 2 19 -5 19 -6 0 -8 5 -5 10 3
6 2 10 -3 10 -5 0 -9 6 -9 13 0 13 -33 89 -43 97 -3 3 -32 59 -64 125 -33 66
-79 150 -102 188 -24 37 -41 67 -37 67 4 0 -5 13 -20 28 -15 16 -25 31 -22 34
3 3 -7 19 -22 35 -15 16 -35 43 -43 59 -27 52 -80 113 -193 224 -80 78 -90
101 -45 116 11 3 35 21 55 40 50 49 118 104 129 104 11 0 219 217 257 267 16
21 37 49 47 63 58 77 77 109 151 260 115 234 115 234 145 345 45 166 52 222
59 420 4 105 9 194 12 198 9 15 12 256 4 261 -10 7 -7 98 3 115 4 6 3 18 -4
26 -8 9 -8 15 0 20 6 3 7 11 4 17 -4 6 -9 38 -12 72 -4 60 -20 97 -62 145 -11
13 -20 27 -20 30 0 3 -21 20 -48 38 -36 25 -59 32 -97 34 -56 1 -194 -32 -228
-56 -12 -8 -29 -15 -38 -15 -10 0 -19 -3 -21 -7 -6 -14 -68 -45 -68 -34 0 5 5
13 10 16 6 3 10 14 10 24 0 10 14 52 31 92 17 41 35 83 40 94 33 81 81 246 90
311 6 43 13 82 15 86 2 4 7 46 9 95 3 48 7 108 10 133 7 59 7 573 0 642 -3 29
-7 103 -10 163 -2 61 -7 124 -11 140 -3 17 -7 49 -7 73 0 23 -3 42 -7 42 -3 0
-7 21 -9 47 -1 30 -13 68 -32 102 -16 30 -29 60 -29 68 0 7 -68 79 -152 160
-222 216 -388 386 -428 435 -45 57 -163 134 -310 204 -30 14 -62 30 -70 34 -9
4 -31 11 -50 15 -34 7 -74 23 -170 67 -25 11 -58 24 -75 28 -40 11 -137 50
-260 105 -33 15 -69 30 -80 34 -11 4 -49 22 -85 39 -36 17 -90 42 -120 55 -30
14 -90 41 -133 61 -42 20 -80 36 -83 36 -3 0 -29 11 -57 24 -120 54 -147 66
-153 66 -4 0 -28 10 -53 21 -59 28 -156 64 -261 99 -14 4 -34 12 -45 16 -11 4
-24 9 -30 9 -5 1 -17 4 -25 7 -8 3 -85 25 -170 49 -85 23 -162 46 -170 51 -20
10 -190 39 -265 45 -33 2 -87 10 -120 18 -37 8 -61 10 -63 4 -3 -6 -8 -6 -15
0 -11 8 -113 25 -237 38 -101 10 -251 33 -344 52 -54 11 -101 20 -105 19 -3
-1 -13 1 -21 5 -8 3 -26 7 -40 10 -43 8 -330 71 -370 82 -3 0 -32 4 -65 9 -33
4 -76 11 -95 16 -19 5 -60 12 -90 15 -30 4 -58 9 -61 10 -5 4 -30 8 -134 21
-22 3 -66 7 -97 9 -32 2 -65 6 -75 9 -10 3 -58 8 -108 11 -49 3 -107 10 -128
15 -20 4 -39 4 -42 0 -3 -4 -24 -3 -47 2 -24 6 -61 11 -83 13 -22 1 -67 6
-100 11 -33 4 -68 7 -78 5 -10 -1 -32 2 -50 8 -36 12 -163 28 -277 35 -41 3
-111 8 -156 11 -44 3 -82 3 -85 1z m598 -1372 c37 -15 75 -33 84 -40 8 -8 19
-14 23 -14 12 0 79 -52 124 -97 24 -24 47 -43 52 -43 5 0 15 -10 21 -22 7 -13
32 -43 56 -68 23 -25 43 -53 43 -63 0 -28 24 -97 34 -97 4 0 6 -7 2 -15 -3 -9
2 -37 12 -63 10 -26 18 -59 17 -74 0 -16 2 -28 6 -28 4 0 6 -14 5 -31 -1 -16
2 -33 6 -35 5 -3 4 -12 -2 -19 -7 -8 -9 -18 -6 -23 5 -8 13 -50 20 -107 1 -11
6 -49 11 -85 4 -36 7 -67 6 -69 -2 -2 2 -7 8 -10 6 -4 13 -25 15 -46 7 -72 18
-125 26 -125 4 0 8 -10 8 -22 1 -23 9 -73 12 -73 6 0 23 -362 23 -490 0 -44
-22 -209 -39 -303 -5 -23 -17 -40 -40 -55 -22 -15 -34 -30 -34 -45 0 -13 -4
-21 -9 -17 -5 3 -12 1 -16 -5 -3 -6 -22 -17 -42 -25 -25 -11 -33 -19 -29 -31
3 -8 1 -24 -4 -34 -8 -15 -19 -18 -58 -16 -73 5 -119 33 -113 69 1 4 -6 10
-14 13 -8 4 -15 12 -15 20 0 8 -8 14 -18 14 -32 0 -44 38 -34 105 7 39 6 64 0
72 -11 13 -9 99 3 123 4 8 8 39 10 69 5 62 22 55 -151 66 -160 10 -694 6 -698
-5 -2 -6 -8 -8 -13 -4 -5 3 -9 -4 -9 -15 0 -12 -4 -21 -8 -21 -9 0 -9 -41 1
-56 3 -6 -2 -23 -13 -38 -17 -26 -17 -32 -4 -70 8 -22 24 -50 36 -63 27 -29
18 -63 -22 -87 -17 -10 -35 -29 -40 -42 -5 -13 -26 -32 -47 -41 -24 -12 -39
-27 -43 -43 -3 -14 -17 -30 -30 -37 -31 -16 -110 -17 -110 -2 0 6 -8 8 -18 5
-13 -4 -34 13 -80 68 -34 41 -62 81 -62 89 0 9 -4 19 -10 22 -5 3 -10 26 -10
49 0 24 -5 68 -11 97 -6 30 -12 77 -14 104 -2 28 -7 70 -11 95 -4 25 -8 56 -9
70 -1 14 -7 39 -14 55 -20 48 -24 84 -12 98 13 17 13 83 -1 120 -9 22 -7 31 7
47 13 14 16 29 12 54 -3 19 -3 37 0 40 3 3 7 22 8 43 2 21 6 65 10 98 3 33 7
80 9 105 2 25 8 63 12 85 4 22 8 49 9 60 2 34 18 80 29 87 7 5 6 8 -3 8 -11 0
-11 3 -1 15 7 8 10 15 6 15 -4 0 0 13 8 29 9 16 13 31 10 33 -5 6 45 148 58
162 4 6 8 16 8 24 0 29 84 178 117 210 20 17 38 32 41 32 8 0 116 73 123 83 3
5 9 8 13 7 7 -2 72 25 96 39 26 17 128 61 140 61 6 0 36 11 68 24 83 34 95 38
112 42 131 30 262 26 357 -12z m1772 -55 c25 -5 55 -12 66 -14 11 -3 34 -7 50
-11 17 -3 44 -12 60 -18 17 -7 57 -24 90 -36 33 -13 62 -27 65 -30 3 -4 12
-10 20 -13 8 -4 29 -16 45 -27 17 -11 37 -23 45 -27 25 -12 105 -74 113 -89 4
-8 12 -14 18 -14 14 0 163 -152 167 -170 2 -8 8 -20 15 -25 7 -6 20 -25 30
-43 14 -24 15 -32 5 -33 -10 0 -10 -2 0 -6 6 -2 12 -11 12 -19 0 -8 7 -26 16
-39 9 -14 13 -25 9 -25 -3 0 3 -15 14 -33 11 -19 18 -37 14 -40 -3 -4 -1 -12
4 -19 11 -14 15 -98 4 -98 -3 0 -6 -15 -5 -32 0 -18 -3 -38 -8 -44 -4 -6 -3
-25 3 -43 6 -17 9 -38 5 -46 -3 -8 -1 -17 4 -20 18 -11 11 -122 -10 -163 -19
-36 -85 -110 -156 -174 -16 -14 -37 -38 -47 -52 -10 -14 -25 -26 -34 -26 -9 0
-24 -7 -33 -15 -23 -20 -156 -70 -235 -88 -5 -2 -16 -6 -22 -10 -7 -5 -17 -5
-23 -2 -5 3 -19 1 -31 -6 -12 -6 -31 -12 -43 -14 -11 -2 -59 -8 -106 -14 -47
-6 -103 -15 -125 -21 -35 -9 -155 -18 -295 -23 l-45 -2 -3 -52 c-3 -47 -1 -53
25 -70 43 -27 53 -44 40 -68 -14 -28 -38 -44 -55 -37 -10 3 -13 0 -10 -9 2 -8
14 -15 26 -17 25 -4 31 -39 8 -48 -8 -3 -16 -13 -19 -23 -5 -21 26 -95 36 -84
4 3 7 -3 7 -14 0 -11 7 -26 15 -33 24 -20 18 -38 -20 -62 -19 -13 -39 -35 -46
-50 -7 -17 -26 -32 -50 -42 -21 -9 -39 -19 -38 -23 7 -44 -46 -73 -131 -73
-50 0 -61 3 -78 25 -11 13 -22 21 -26 18 -3 -4 -12 8 -18 25 -7 18 -18 32 -26
32 -7 0 -11 4 -8 8 2 4 1 14 -5 22 -7 13 -9 13 -9 0 0 -19 -37 40 -37 60 0 8
-3 38 -6 65 -3 28 -9 169 -12 315 -6 249 -14 329 -36 356 -10 12 -2 44 10 44
15 0 8 89 -7 95 -11 4 -12 8 -2 20 9 10 9 15 1 15 -6 0 -11 5 -11 10 0 6 7 10
17 10 15 0 15 15 9 162 -3 88 -10 166 -15 172 -11 15 -24 122 -26 231 -2 50
-4 105 -7 123 -2 17 -1 32 4 32 4 0 8 9 8 20 0 11 4 20 9 20 12 0 31 56 31 94
0 74 98 185 217 246 37 19 70 35 73 36 3 0 19 7 35 14 17 7 37 15 45 17 45 11
47 12 55 15 90 31 286 46 374 27z m-5484 -238 c-4 -17 -11 -31 -17 -31 -6 0
-8 3 -5 7 4 3 1 13 -5 21 -10 11 -8 17 7 28 24 18 28 12 20 -25z m7246 -112
c37 -1 73 -8 86 -16 12 -8 25 -14 28 -13 3 1 25 -7 48 -18 156 -74 247 -112
247 -104 0 4 4 2 8 -4 6 -10 87 -51 204 -103 26 -12 68 -24 92 -27 58 -8 112
-52 111 -90 0 -23 -5 -28 -27 -29 -31 -2 -72 -35 -43 -35 9 0 28 -9 42 -20
l25 -19 -26 -12 c-21 -10 -25 -17 -22 -44 4 -35 20 -67 49 -99 33 -38 11 -86
-40 -86 -20 0 -24 -4 -20 -19 3 -11 -2 -26 -12 -34 -19 -17 -77 -38 -84 -30
-3 3 -11 2 -17 -2 -8 -5 -5 -11 7 -20 17 -13 17 -15 0 -32 -26 -26 -148 -23
-217 5 -39 16 -64 25 -79 28 -7 1 -39 19 -71 38 -32 20 -67 36 -78 36 -12 0
-33 5 -49 12 -15 6 -32 12 -36 12 -4 1 -12 8 -17 16 -5 8 -10 11 -10 7 0 -5
-10 -1 -22 7 -12 9 -35 16 -51 16 -15 0 -30 6 -33 14 -6 15 -37 26 -93 33 -24
3 -37 -1 -47 -14 -13 -18 -48 -123 -42 -128 2 -1 30 -10 63 -20 33 -9 76 -24
95 -32 89 -38 187 -89 200 -104 3 -3 25 -15 50 -26 59 -28 107 -73 102 -96 -2
-10 5 -25 15 -32 16 -13 14 -13 -21 -8 -27 4 -41 2 -47 -8 -13 -21 -11 -26 16
-33 14 -4 25 -11 25 -16 0 -6 0 -13 0 -17 0 -5 -14 -13 -32 -19 -27 -9 -29
-12 -16 -24 8 -8 13 -22 11 -31 -3 -9 0 -20 6 -23 6 -4 11 -16 11 -27 0 -10 4
-19 8 -19 11 0 32 -46 32 -70 0 -18 -6 -22 -63 -34 -22 -5 -27 -11 -22 -25 6
-19 -16 -50 -38 -53 -7 0 -16 -2 -22 -3 -5 -2 -15 -3 -21 -4 -6 0 -11 -13 -11
-28 0 -29 -29 -56 -52 -48 -9 2 -32 5 -51 7 -19 1 -41 6 -47 11 -7 5 -20 6
-29 3 -11 -4 -18 0 -21 14 -3 11 -9 17 -14 15 -4 -3 -19 5 -31 17 -13 13 -27
22 -31 20 -5 -1 -20 6 -35 16 -15 11 -33 17 -39 15 -7 -3 -16 2 -19 11 -3 9
-16 16 -28 16 -12 0 -31 7 -44 15 -12 9 -38 17 -57 19 -20 2 -38 6 -42 10 -3
3 -15 6 -25 6 -31 0 -21 -38 22 -82 22 -23 40 -45 40 -49 0 -3 26 -25 59 -47
50 -36 85 -49 174 -67 9 -2 20 -6 25 -8 4 -3 31 -8 61 -11 30 -3 59 -11 66
-16 6 -5 15 -7 18 -3 4 3 7 1 7 -5 0 -6 6 -9 13 -6 8 3 48 -4 90 -15 69 -19
202 -27 357 -22 57 2 134 -18 162 -43 24 -19 54 -74 46 -81 -2 -1 -15 -9 -31
-17 l-27 -14 20 -21 c27 -29 25 -47 -5 -61 -14 -6 -25 -18 -25 -26 0 -21 43
-98 58 -103 6 -3 12 -18 12 -34 0 -21 -8 -34 -32 -50 -18 -12 -42 -35 -53 -52
-12 -19 -33 -34 -52 -39 -27 -7 -33 -13 -33 -37 0 -19 -7 -31 -23 -38 -37 -17
-388 -16 -494 1 -51 8 -102 20 -115 27 -12 7 -40 13 -61 15 -21 2 -58 10 -83
19 -24 8 -55 15 -68 15 -12 0 -26 3 -30 7 -4 4 -17 8 -29 8 -38 2 -77 15 -77
25 0 5 -6 7 -13 4 -7 -2 -29 6 -48 20 -18 14 -49 32 -66 42 -18 9 -33 23 -33
31 0 8 -4 11 -10 8 -5 -3 -10 -1 -10 5 0 6 -9 14 -19 18 -33 12 -151 132 -151
153 0 11 -4 18 -8 15 -5 -3 -15 7 -23 22 -8 15 -20 33 -26 40 -7 7 -13 24 -13
37 0 13 -6 30 -13 37 -6 7 -12 31 -11 53 1 22 -2 45 -7 51 -10 13 -9 365 1
379 7 9 19 62 21 95 1 8 7 22 14 30 15 19 49 155 42 172 -2 7 -5 17 -5 22 0 5
-6 13 -14 18 -10 7 -8 8 6 6 10 -2 21 3 24 11 3 8 0 11 -6 7 -19 -12 -22 11
-3 28 12 11 21 38 26 74 4 31 12 66 17 77 14 27 78 85 95 85 16 0 33 34 71
145 77 224 138 345 205 408 49 46 103 77 134 77 8 0 21 7 29 15 10 9 24 13 40
9 14 -4 24 -2 24 4 0 10 65 21 81 15 4 -2 35 -3 70 -4z m-5860 -3435 c11 -6 4
-5 217 -47 107 -21 180 -41 190 -51 15 -14 12 -19 -25 -53 -116 -109 -172
-189 -192 -273 -5 -19 -10 -42 -12 -50 -2 -8 -14 -34 -27 -59 -17 -34 -19 -46
-10 -53 10 -6 10 -12 0 -29 -11 -16 -11 -23 -2 -29 8 -5 -4 -41 -43 -121 -30
-63 -60 -132 -67 -154 -7 -22 -16 -44 -20 -50 -18 -25 -85 -240 -94 -304 -2
-13 -9 -27 -16 -31 -7 -4 -10 -12 -6 -18 3 -6 2 -13 -4 -17 -5 -3 -10 -22 -10
-41 0 -19 -9 -54 -20 -76 -11 -23 -18 -50 -14 -60 3 -10 1 -18 -4 -18 -5 0
-10 -12 -10 -27 -4 -92 -8 -117 -21 -121 -11 -4 -11 -6 0 -13 10 -6 10 -9 2
-9 -7 0 -10 -7 -7 -15 4 -8 2 -21 -4 -28 -5 -6 -9 -24 -8 -39 1 -16 -1 -28 -4
-28 -3 0 -6 -10 -7 -22 -6 -61 -9 -74 -16 -85 -5 -8 -3 -13 5 -13 10 0 9 -3
-2 -11 -12 -9 -13 -12 -1 -16 10 -4 11 -7 1 -13 -17 -10 -23 -80 -7 -80 8 0 9
-3 1 -8 -16 -11 -25 -42 -12 -42 7 0 7 -4 1 -12 -19 -24 -5 -395 22 -583 3
-22 6 -47 6 -55 1 -8 8 -44 16 -80 8 -36 17 -83 20 -105 5 -49 31 -133 44
-140 5 -4 9 -18 9 -33 0 -15 9 -40 20 -57 11 -16 20 -45 20 -62 0 -22 5 -33
14 -33 8 0 17 -15 20 -34 4 -19 13 -37 21 -40 8 -3 15 -15 15 -27 0 -12 9 -30
21 -40 11 -9 20 -20 20 -23 -4 -31 1 -46 15 -46 12 0 14 -3 6 -13 -8 -9 -6
-16 8 -25 10 -6 36 -45 56 -87 21 -41 41 -75 45 -75 8 0 74 -109 74 -122 0 -3
10 -15 22 -25 12 -11 23 -25 25 -33 2 -7 20 -30 41 -50 20 -21 37 -41 37 -44
0 -4 23 -29 50 -57 28 -27 50 -54 50 -59 0 -5 23 -24 50 -42 50 -33 60 -50 38
-64 -7 -4 -8 -3 -4 4 5 9 -9 10 -51 7 -32 -3 -139 -7 -238 -10 -187 -5 -260
-11 -275 -20 -5 -3 -11 -1 -15 5 -4 6 -11 8 -16 4 -6 -3 -32 -8 -57 -11 -26
-3 -65 -9 -87 -13 -22 -5 -84 -18 -137 -29 -53 -11 -105 -24 -115 -29 -10 -5
-24 -7 -30 -5 -7 3 -13 0 -13 -6 0 -6 -7 -11 -16 -11 -20 0 -157 -60 -165 -72
-3 -5 -10 -10 -15 -10 -17 -1 -52 -17 -58 -26 -9 -15 -51 -9 -51 8 0 8 -4 20
-8 27 -4 7 -10 61 -12 120 -3 59 -10 135 -16 167 -16 88 -17 275 -2 304 16 30
17 52 2 52 -8 0 -8 4 1 15 6 8 9 19 5 25 -4 6 -1 18 7 27 10 13 10 17 1 20
-19 7 -16 23 5 24 9 0 12 3 5 5 -8 4 -9 13 -4 27 5 12 5 31 1 42 -4 11 -5 24
-2 29 7 12 12 171 15 525 3 233 7 316 16 319 8 3 9 15 5 39 -5 24 -3 38 7 43
10 7 10 12 0 23 -9 12 -8 23 8 53 13 25 19 51 16 74 -3 19 0 37 5 40 6 4 11
23 12 43 1 20 6 37 11 37 5 0 4 6 -2 14 -9 10 -8 16 5 26 10 9 13 22 9 37 -3
15 -1 23 7 23 9 0 8 3 -2 10 -11 7 -12 10 -2 10 8 0 13 9 11 23 -1 12 1 29 4
37 14 33 46 184 41 192 -3 4 -1 8 5 8 6 0 8 7 5 15 -4 8 -1 15 6 15 7 0 10 6
7 14 -3 8 -2 16 2 18 5 2 12 32 15 67 4 35 13 79 21 97 8 20 10 34 4 34 -6 0
-5 8 2 21 6 12 13 36 16 53 2 17 11 57 20 88 8 32 13 67 10 78 -4 14 0 20 11
20 14 0 14 2 3 9 -9 6 -10 10 -2 16 7 3 9 15 6 25 -3 10 -1 21 5 25 5 3 10 24
10 46 0 21 4 39 9 39 6 0 7 16 4 35 -4 28 -2 35 11 35 9 0 16 8 16 21 0 11 -4
17 -10 14 -13 -8 -13 1 -1 24 5 9 12 35 14 57 2 21 9 50 14 64 6 14 9 38 8 53
-2 15 1 29 6 32 5 3 6 24 4 45 -4 30 -2 40 9 40 9 0 13 10 12 30 -1 17 3 35 9
40 6 5 10 23 7 39 -2 16 1 32 7 35 6 4 11 20 11 37 0 16 4 37 9 47 11 19 49
134 57 172 6 30 50 142 73 190 10 19 21 47 25 62 3 16 29 64 57 108 l51 80 50
-6 c28 -2 55 -7 59 -10z m1572 -319 c12 -2 60 -14 107 -25 103 -25 128 -30
177 -35 21 -1 38 -4 38 -5 0 -2 11 -4 25 -5 14 -2 44 -8 68 -14 43 -11 112
-23 145 -24 9 -1 17 -4 17 -8 0 -3 19 -9 43 -12 23 -3 110 -17 192 -32 83 -15
165 -29 184 -31 19 -3 37 -6 41 -9 4 -2 22 -7 41 -10 19 -3 52 -9 74 -14 48
-12 96 -23 110 -27 6 -1 60 -14 120 -28 61 -14 125 -30 143 -35 17 -5 32 -7
32 -3 0 3 5 1 12 -6 7 -7 22 -12 35 -12 14 0 23 -6 23 -15 0 -8 -29 -71 -65
-140 -36 -68 -65 -137 -65 -153 0 -15 -4 -32 -9 -38 -14 -15 -22 -64 -11 -64
7 0 8 -5 3 -12 -4 -7 -8 -17 -8 -23 0 -13 -95 -159 -106 -163 -5 -2 -9 -8 -9
-14 0 -5 -23 -56 -51 -112 -56 -110 -136 -286 -148 -326 -5 -14 -20 -50 -34
-80 -14 -30 -28 -66 -31 -80 -8 -38 -30 -96 -43 -112 -7 -7 -14 -25 -16 -38
-2 -14 -7 -32 -10 -40 -14 -34 -36 -134 -31 -142 3 -4 1 -8 -4 -8 -11 0 -33
-70 -26 -82 3 -5 0 -15 -6 -23 -7 -8 -9 -15 -5 -15 4 0 2 -6 -4 -14 -10 -12
-24 -105 -23 -149 1 -9 -3 -15 -8 -12 -5 3 -11 1 -15 -5 -3 -5 -1 -10 4 -10
14 0 7 -43 -7 -48 -9 -3 -9 -9 -1 -24 8 -14 8 -27 1 -42 -18 -37 -22 -56 -12
-56 16 0 11 -22 -7 -36 -12 -9 -14 -13 -5 -14 7 0 11 -4 8 -8 -20 -34 -36
-394 -20 -463 3 -13 7 -46 9 -74 2 -27 11 -67 19 -87 9 -21 16 -41 15 -45 -2
-17 14 -53 24 -53 6 0 8 -3 4 -6 -5 -6 9 -36 50 -107 6 -12 23 -33 37 -48 14
-15 26 -35 26 -44 0 -9 9 -19 20 -22 11 -3 20 -9 20 -13 0 -11 53 -65 61 -63
4 1 6 -5 5 -15 0 -9 4 -16 10 -15 5 1 15 -7 22 -17 9 -15 8 -22 -4 -34 -8 -9
-20 -29 -25 -46 -8 -22 -17 -30 -36 -30 -37 0 -65 -18 -58 -39 4 -15 -5 -21
-52 -36 -32 -10 -78 -35 -103 -55 -58 -47 -64 -49 -173 -56 -98 -6 -280 -28
-362 -44 -52 -10 -65 -12 -175 -29 -107 -17 -122 -20 -190 -36 -36 -8 -90 -20
-120 -26 -123 -24 -276 -62 -287 -72 -7 -5 -13 -7 -13 -4 0 3 -21 -2 -47 -10
-27 -8 -59 -17 -73 -19 -13 -3 -29 -9 -35 -13 -21 -16 -164 -55 -192 -52 -18
2 -16 41 2 41 21 0 19 29 -2 36 -10 3 -29 11 -43 17 -23 9 -23 11 -5 15 10 2
29 11 40 18 16 10 29 12 51 5 23 -8 106 -19 169 -22 30 -2 84 5 115 14 19 6
42 10 51 9 9 -2 22 4 29 13 7 8 18 15 25 15 21 0 73 30 79 45 3 8 13 15 21 15
9 0 31 11 49 25 18 14 36 22 39 18 4 -3 7 -1 7 5 0 7 6 12 13 12 7 0 20 8 28
18 9 9 33 33 55 53 42 39 183 186 224 234 24 28 58 84 118 195 39 71 85 183
84 205 -1 11 5 26 12 35 14 15 23 47 33 110 3 19 9 40 14 46 5 6 13 31 19 55
5 24 16 67 24 96 8 28 17 71 19 95 3 24 10 65 16 91 6 26 11 60 11 75 0 15 2
56 4 92 7 101 19 413 18 435 -1 11 -3 61 -5 110 -2 50 -6 96 -11 103 -4 7 -3
12 3 12 6 0 6 11 1 29 -4 16 -6 32 -3 35 3 3 2 13 -2 23 -3 10 -8 45 -10 78
-6 106 -16 188 -24 204 -5 9 -6 22 -4 29 3 7 2 20 -3 30 -4 9 -8 26 -9 37 -1
11 -4 27 -7 35 -6 14 -14 55 -20 105 -2 11 -9 24 -16 28 -7 5 -10 12 -7 18 5
8 -17 109 -33 149 -3 8 -6 20 -7 26 0 6 -5 22 -12 35 -6 13 -21 58 -34 99 -12
41 -28 90 -36 109 -9 18 -16 39 -18 45 -10 39 -18 55 -26 50 -5 -3 -6 2 -3 10
3 9 1 16 -5 16 -6 0 -11 7 -11 16 0 8 -11 31 -25 51 -13 20 -22 40 -19 45 3 4
-2 8 -11 8 -9 0 -14 4 -10 9 3 5 0 13 -6 16 -5 4 -8 13 -5 20 2 7 -2 16 -10
19 -8 3 -19 17 -24 31 -5 14 -14 25 -20 25 -5 0 -10 4 -10 10 0 5 -9 21 -21
34 -12 13 -21 28 -21 33 0 4 -11 18 -24 30 -13 12 -24 26 -24 30 0 5 -9 16
-20 26 -11 9 -20 22 -20 29 0 7 -13 22 -28 32 -36 24 -68 71 -64 94 5 28 31
42 58 32 14 -6 35 -12 47 -15z m-583 -505 c0 -7 6 -7 18 -1 31 16 75 10 94
-15 10 -12 27 -25 36 -29 26 -8 63 -61 56 -79 -3 -9 -14 -16 -23 -16 -15 -1
-89 -25 -141 -47 -39 -17 -130 -43 -150 -43 -10 0 -23 -6 -29 -14 -7 -8 -27
-17 -47 -20 -47 -9 -98 -80 -114 -158 -6 -31 -15 -60 -21 -63 -5 -4 -6 -11 -3
-17 4 -6 -2 -18 -12 -26 -16 -13 -17 -14 -1 -9 23 8 22 -6 -3 -28 -22 -20 -27
-51 -9 -57 8 -3 7 -14 -5 -35 -13 -27 -15 -59 -11 -215 3 -101 7 -199 10 -218
5 -36 27 -258 45 -465 5 -66 12 -146 15 -179 3 -32 8 -101 11 -155 2 -53 9
-161 16 -241 6 -80 12 -163 13 -185 1 -22 8 -60 15 -85 6 -25 15 -66 20 -91
12 -67 32 -129 41 -129 5 0 11 -17 15 -37 4 -21 13 -44 21 -51 7 -7 13 -26 13
-42 0 -19 7 -33 20 -40 11 -6 20 -15 20 -21 0 -15 -52 1 -90 29 -71 52 -216
217 -249 284 -7 15 -17 28 -22 28 -5 0 -9 6 -9 14 0 8 -4 16 -8 18 -10 4 -122
185 -122 197 0 5 -4 11 -9 13 -4 2 -32 50 -61 108 -43 88 -67 152 -91 250 -2
8 -8 18 -12 21 -8 6 -10 16 -22 101 -3 26 -9 50 -13 52 -5 3 -9 21 -10 42 -2
20 -6 42 -9 48 -13 20 -18 246 -7 336 3 30 8 71 10 90 9 85 12 109 24 170 6
36 14 79 17 95 2 17 8 39 13 50 10 23 30 108 35 147 2 15 10 40 18 55 14 27
27 73 25 83 -1 3 4 14 10 26 6 11 13 32 16 45 6 34 64 190 75 203 5 6 21 39
35 74 29 70 85 159 113 183 24 19 99 17 141 -5 18 -9 32 -20 32 -24 0 -8 49
-32 66 -32 7 0 14 -5 16 -12 8 -22 30 4 25 28 -5 29 0 33 44 35 46 3 74 18 60
32 -7 7 -4 14 12 23 28 16 37 16 37 4z m424 -394 c-3 -7 11 -34 30 -60 20 -25
34 -46 31 -46 -4 0 3 -17 39 -105 16 -38 33 -91 41 -132 4 -18 11 -33 16 -33
5 0 9 -13 9 -29 0 -17 5 -33 10 -36 6 -3 10 -17 10 -29 0 -13 7 -39 15 -59 8
-19 11 -37 8 -41 -4 -3 -2 -6 3 -6 5 0 10 -10 10 -22 1 -13 13 -78 28 -146 14
-67 28 -146 30 -175 3 -29 6 -52 6 -52 6 0 9 -74 9 -210 1 -208 -3 -287 -12
-302 -5 -7 -4 -13 2 -13 7 0 8 -9 3 -22 -4 -13 -7 -40 -6 -61 0 -21 -3 -40 -7
-43 -4 -2 -6 -11 -2 -19 3 -9 -2 -26 -11 -40 -9 -14 -14 -30 -11 -35 3 -6 2
-10 -2 -10 -5 0 -8 -12 -7 -27 1 -28 -22 -111 -36 -126 -9 -10 -10 -1 -15 128
-3 61 -5 110 -6 110 -1 0 -3 25 -5 55 -7 123 -11 157 -16 166 -3 5 -5 24 -3
43 1 19 -3 59 -10 88 -7 30 -8 53 -3 53 5 0 7 4 4 8 -7 11 -18 71 -19 100 -1
12 -3 22 -6 22 -4 0 -7 21 -8 46 -1 26 -7 50 -13 54 -7 4 -8 10 -3 13 12 8 4
110 -9 118 -7 4 -6 9 0 13 8 4 6 20 -4 48 -8 22 -16 67 -18 99 -2 32 -8 65
-15 72 -6 8 -8 16 -5 19 3 3 -2 43 -10 88 -9 45 -13 86 -10 91 3 6 0 16 -6 24
-7 8 -9 15 -5 15 4 0 2 7 -5 15 -7 8 -8 15 -3 15 9 0 6 74 -4 100 -3 8 -6 24
-7 35 -1 11 -4 25 -7 30 -4 6 -3 19 1 30 4 10 1 30 -6 43 -6 13 -11 39 -10 58
1 19 -3 34 -7 34 -5 0 -6 8 -3 17 4 9 1 20 -5 24 -7 4 -9 14 -6 23 5 13 11 15
26 6 11 -6 18 -16 15 -24z m3626 -51 c19 -4 51 -14 70 -22 57 -24 69 -29 195
-68 196 -61 204 -64 220 -96 9 -16 12 -29 8 -29 -5 0 -2 -4 5 -9 14 -8 18 -28
28 -111 3 -25 11 -76 19 -115 8 -38 21 -113 30 -165 9 -52 18 -106 21 -120 14
-71 36 -188 39 -210 2 -14 7 -36 10 -50 2 -14 8 -45 11 -70 9 -62 12 -84 14
-90 1 -3 1 -17 0 -32 -1 -18 4 -28 12 -28 8 0 9 -3 3 -8 -11 -8 -16 -42 -6
-42 3 0 7 -26 7 -58 1 -31 4 -84 8 -117 11 -104 21 -325 18 -420 0 -11 0 -222
1 -470 2 -534 2 -543 -65 -830 -37 -160 -34 -147 -41 -165 -3 -8 -15 -46 -28
-85 -39 -124 -83 -207 -143 -268 -31 -31 -63 -57 -70 -57 -14 0 -31 17 -38 35
-1 6 -6 9 -10 8 -5 -2 -8 1 -8 6 0 4 -10 19 -22 33 -13 14 -30 35 -38 48 -8
12 -25 34 -37 48 -13 15 -23 31 -23 36 0 5 -11 19 -25 32 -14 13 -25 25 -25
26 4 10 -14 37 -20 33 -5 -3 -11 3 -14 13 -4 10 -31 45 -61 78 -30 32 -55 62
-55 66 0 5 -3 8 -7 8 -5 0 -26 17 -48 38 -71 66 -218 187 -283 232 -34 24 -61
46 -59 49 1 3 9 18 16 33 8 15 26 32 40 38 15 6 34 21 42 33 8 12 33 40 55 62
23 22 56 60 73 84 17 24 41 49 53 55 15 8 22 21 24 46 1 19 7 78 13 130 7 52
14 115 16 140 8 91 37 298 55 400 18 92 54 424 66 595 2 33 9 112 14 175 10
116 7 462 -5 491 -3 8 -1 28 4 42 6 15 7 27 2 27 -5 0 -11 14 -13 30 -3 17 0
30 5 30 6 0 6 5 1 13 -5 6 -9 31 -8 55 0 23 -2 42 -6 42 -3 0 -7 12 -8 28 -1
37 -10 93 -25 172 -2 8 -6 22 -9 30 -7 18 -18 63 -25 104 -3 16 -11 36 -19 43
-8 8 -12 18 -9 23 3 5 1 11 -4 15 -6 3 -8 12 -4 21 3 9 9 11 17 5 6 -5 27 -12
46 -16z m-1095 -15 c-3 -5 -15 -10 -26 -10 -10 0 -19 5 -19 10 0 6 12 10 26
10 14 0 23 -4 19 -10z m-235 -46 c41 -4 84 -8 95 -9 11 -1 41 -3 68 -4 54 -1
59 -14 31 -70 -9 -18 -18 -45 -19 -60 -3 -33 -26 -112 -37 -127 -5 -7 -9 -32
-11 -58 -1 -25 -5 -46 -8 -46 -11 0 -17 -39 -7 -42 6 -2 1 -20 -11 -41 -11
-20 -16 -37 -11 -37 14 0 4 -51 -12 -62 -11 -8 -11 -11 0 -15 10 -4 9 -9 -4
-24 -10 -11 -12 -19 -6 -19 7 0 12 -4 12 -10 0 -5 -8 -10 -17 -10 -13 0 -14
-3 -5 -12 7 -7 8 -17 2 -29 -10 -17 -11 -28 -10 -96 0 -21 -5 -33 -13 -33 -8
0 -14 -15 -15 -42 -2 -63 -6 -88 -12 -88 -3 0 -6 -19 -7 -42 -2 -55 -7 -80
-18 -97 -5 -10 -4 -12 3 -7 7 4 12 2 12 -3 0 -6 -6 -11 -13 -11 -14 0 -16 -27
-3 -48 4 -7 2 -12 -7 -12 -11 0 -13 -11 -11 -42 4 -55 -4 -88 -22 -88 -15 0
-15 -41 0 -52 6 -4 5 -13 -3 -22 -7 -8 -9 -21 -5 -27 4 -7 3 -9 -3 -6 -6 4
-13 0 -17 -8 -3 -8 -1 -17 4 -20 16 -10 12 -35 -5 -35 -8 0 -15 -4 -15 -10 0
-5 4 -10 10 -10 11 0 1 -32 -14 -42 -8 -5 -7 -11 1 -19 9 -9 8 -19 -4 -43 -11
-22 -12 -31 -4 -34 9 -3 7 -9 -4 -22 -13 -15 -14 -23 -5 -39 6 -13 7 -21 1
-21 -5 0 -10 -12 -10 -27 0 -16 -3 -39 -6 -53 -4 -14 -7 -33 -7 -42 1 -10 -3
-18 -8 -18 -5 0 -5 -14 1 -32 6 -22 5 -34 -3 -39 -6 -4 -8 -16 -5 -28 3 -12 1
-21 -5 -21 -5 0 -7 -19 -5 -45 3 -25 2 -45 -1 -45 -4 0 -8 -15 -9 -32 -2 -28
-6 -63 -12 -101 -1 -9 -60 1 -76 13 -9 7 -83 34 -95 35 -7 0 -86 32 -130 53
-109 51 -226 144 -259 206 -8 14 -18 26 -23 26 -4 0 -8 6 -8 14 0 7 -7 19 -15
26 -9 7 -26 34 -37 59 -18 39 -21 63 -20 161 2 157 29 342 59 403 7 15 12 27
9 27 -8 0 23 119 52 199 17 46 29 88 26 93 -3 4 0 8 5 8 6 0 11 7 11 15 0 14
13 46 51 131 11 23 19 46 19 52 0 6 7 26 16 44 9 18 44 92 78 163 72 151 107
216 141 265 62 89 113 149 140 166 51 32 76 34 245 18z m769 -146 c17 -18 31
-43 31 -54 0 -12 6 -24 14 -27 7 -3 16 -21 20 -41 4 -20 15 -40 25 -45 15 -8
26 -38 44 -118 2 -7 6 -16 10 -19 4 -4 7 -20 7 -36 0 -16 6 -43 13 -61 8 -18
12 -37 10 -44 -2 -7 0 -21 6 -31 6 -11 14 -94 17 -184 4 -103 11 -166 18 -170
7 -5 5 -8 -5 -8 -12 0 -16 -10 -15 -42 0 -24 -4 -88 -8 -143 -4 -55 -8 -128
-9 -162 -1 -35 -5 -63 -8 -63 -10 0 -5 -34 6 -42 6 -5 6 -8 -1 -8 -13 0 -14
-6 -18 -97 -2 -40 -7 -78 -13 -85 -5 -7 -9 -38 -8 -68 0 -37 -5 -59 -15 -67
-8 -7 -10 -13 -5 -13 12 0 18 -70 6 -70 -5 0 -11 -9 -14 -20 -3 -11 0 -20 6
-20 7 0 7 -4 -2 -9 -8 -5 -12 -18 -8 -30 3 -11 -1 -25 -8 -31 -12 -10 -12 -51
0 -71 3 -4 -2 -12 -10 -19 -18 -15 -19 -37 -2 -43 9 -4 9 -8 1 -14 -10 -7 -24
-64 -29 -118 -5 -54 -19 -85 -39 -90 -11 -3 -98 -4 -193 -3 -147 3 -173 5
-176 19 -2 9 9 26 26 40 17 13 38 33 47 43 16 21 44 49 82 83 23 21 55 78 77
138 11 30 18 96 27 239 2 44 6 82 9 84 2 3 0 13 -5 23 -7 11 -7 20 0 24 9 6 6
741 -4 970 -13 281 -16 424 -10 463 12 78 53 93 103 40z m-6414 -2 c55 -7 106
-25 131 -48 29 -26 21 -66 -15 -74 -37 -8 -56 -19 -57 -35 0 -8 -4 -22 -8 -31
-4 -10 -6 -23 -3 -30 2 -7 -1 -24 -8 -38 -7 -14 -11 -47 -10 -75 2 -28 -2 -53
-8 -57 -7 -4 -5 -17 6 -40 14 -28 14 -33 2 -36 -8 -2 -15 -6 -15 -9 0 -7 50
-75 61 -83 3 -3 15 -22 26 -42 11 -21 23 -35 26 -32 3 3 10 -4 17 -15 6 -12
17 -21 25 -21 8 0 18 -6 22 -13 4 -7 22 -21 38 -32 88 -56 168 -173 181 -265
3 -25 8 -52 11 -60 13 -33 21 -96 27 -196 2 -28 6 -56 10 -62 3 -6 2 -13 -4
-17 -5 -3 -10 -11 -10 -16 0 -6 4 -8 9 -4 13 8 -6 -56 -20 -69 -9 -8 -10 -6
-5 8 9 25 -12 94 -41 134 -29 38 -117 107 -153 117 -14 4 -36 15 -50 25 -14
10 -40 21 -57 25 -18 3 -33 10 -33 14 0 4 -8 7 -17 8 -21 1 -88 11 -88 13 0 1
-13 3 -30 5 -16 1 -52 6 -80 10 -29 4 -73 2 -105 -4 -30 -7 -62 -13 -70 -14
-8 -1 -17 -4 -20 -7 -3 -4 -24 -12 -47 -18 -23 -7 -49 -19 -57 -27 -8 -8 -19
-15 -25 -15 -6 0 -11 -3 -11 -8 0 -4 -10 -12 -22 -17 -19 -8 -25 -23 -34 -75
-11 -69 -28 -110 -45 -110 -6 0 -9 -6 -6 -12 2 -7 9 -12 16 -11 16 4 25 -45
11 -62 -10 -12 -10 -18 0 -30 7 -9 8 -15 2 -15 -16 0 -23 -47 -11 -74 6 -13
25 -30 40 -37 16 -6 29 -18 29 -26 0 -8 4 -11 10 -8 5 3 16 -9 23 -28 13 -31
18 -33 58 -32 24 0 62 6 84 13 44 12 107 10 201 -9 75 -15 94 -28 96 -65 2
-57 -82 -237 -117 -250 -17 -7 -47 -69 -43 -92 1 -9 -4 -32 -12 -49 -19 -42
-54 -44 -102 -5 -20 15 -54 38 -77 52 -23 14 -58 35 -77 48 -19 12 -41 22 -49
22 -7 0 -20 6 -27 14 -8 7 -32 23 -55 34 -22 12 -54 33 -71 47 -16 14 -34 25
-38 25 -9 0 -89 123 -89 137 0 4 -4 14 -8 20 -4 7 -10 38 -12 70 -2 32 -5 60
-6 63 -1 3 -1 8 0 12 0 3 3 100 6 215 6 243 24 408 60 541 2 9 9 34 14 55 5
21 13 43 19 50 5 7 19 43 31 82 40 123 94 191 108 135 3 -11 9 -18 13 -15 4 3
11 -2 14 -10 6 -18 47 -36 94 -42 l34 -4 -7 42 c-6 36 -5 41 9 36 9 -4 16 -2
16 4 0 6 4 7 10 4 19 -12 50 15 50 44 0 24 6 31 39 44 48 20 54 28 42 60 -13
34 -22 84 -26 145 -2 29 -6 56 -9 59 -13 13 -6 53 9 53 8 0 15 5 15 10 0 6 -7
10 -16 10 -13 0 -12 5 7 23 13 13 33 27 44 32 20 9 142 22 160 18 6 -1 28 -4
50 -7z m9135 -397 c0 -6 6 -9 13 -6 15 5 74 -19 106 -44 13 -10 27 -16 32 -13
5 3 9 -2 9 -10 0 -9 4 -16 8 -16 14 0 141 -131 148 -152 3 -10 10 -16 15 -13
5 4 9 0 9 -8 0 -8 14 -30 30 -48 47 -53 50 -57 50 -73 0 -8 4 -16 8 -18 12 -5
66 -87 91 -140 13 -27 27 -48 32 -48 6 0 7 -4 4 -10 -3 -5 -2 -10 3 -10 5 0
12 -15 15 -34 3 -18 17 -46 31 -61 14 -15 26 -37 26 -48 0 -23 39 -97 59 -113
8 -6 11 -16 7 -22 -4 -7 -3 -12 3 -12 6 0 8 -7 5 -15 -4 -8 -1 -15 5 -15 6 0
11 -6 11 -14 0 -7 7 -27 15 -42 8 -16 15 -39 15 -51 0 -13 5 -23 11 -23 6 0 9
-6 6 -14 -3 -7 0 -19 6 -25 23 -23 53 -402 35 -437 -2 -5 -4 -44 -4 -86 1 -43
-2 -78 -7 -78 -4 0 -7 -12 -6 -27 1 -40 -33 -193 -43 -193 -4 0 -8 -10 -8 -22
0 -13 -7 -36 -15 -52 -8 -15 -15 -36 -15 -46 0 -10 -7 -23 -15 -30 -8 -7 -15
-19 -15 -26 0 -8 -4 -14 -8 -14 -4 0 -13 -12 -20 -27 -7 -16 -19 -40 -27 -54
-25 -44 -147 -160 -203 -193 -30 -17 -66 -38 -82 -48 -78 -46 -236 -68 -395
-54 -82 7 -203 34 -211 47 -3 5 -13 9 -23 9 -10 0 -26 9 -36 20 -17 19 -17 20
11 30 16 6 38 19 49 29 11 10 32 25 46 32 94 49 132 74 194 124 92 74 210 189
302 294 87 99 213 287 213 316 0 11 6 29 13 40 34 50 48 183 38 360 0 11 -1
32 -1 48 0 15 -1 37 -1 50 -1 12 -1 38 0 57 2 34 -1 62 -16 145 -4 22 -6 43
-5 48 1 4 -2 7 -7 7 -5 0 -8 8 -7 18 2 9 -3 26 -10 37 -8 11 -14 27 -14 37 0
10 -4 18 -10 18 -5 0 -10 6 -10 13 0 7 -9 23 -20 35 -11 12 -20 27 -20 35 0
17 -118 188 -142 205 -10 7 -18 17 -18 23 0 8 -15 28 -48 61 -65 66 -87 92
-84 99 1 5 -3 9 -8 9 -6 0 -31 20 -56 45 -24 25 -49 45 -54 45 -6 0 -10 7 -10
15 0 8 -7 15 -15 15 -8 0 -15 4 -15 8 0 5 -19 22 -42 39 -54 39 -88 69 -88 77
0 3 36 6 80 6 51 0 80 -4 80 -11z m-334 -614 c16 -14 41 -35 57 -47 15 -13 40
-36 55 -52 44 -48 86 -86 95 -86 4 0 5 -4 2 -10 -3 -5 -1 -10 5 -10 6 0 14 -8
17 -17 4 -10 21 -32 40 -50 18 -17 33 -34 33 -37 0 -2 27 -45 60 -95 33 -49
63 -103 66 -120 4 -17 11 -34 15 -37 5 -3 9 -29 9 -59 0 -57 -29 -129 -75
-184 -14 -16 -25 -31 -25 -34 0 -17 -256 -247 -276 -247 -3 0 -20 -11 -38 -25
-18 -14 -37 -25 -42 -25 -5 0 -26 -11 -46 -25 -20 -14 -41 -25 -46 -25 -5 0
-5 21 0 53 4 28 11 79 14 112 2 33 8 76 13 95 5 19 9 44 9 55 0 11 3 31 6 45
4 14 9 126 13 250 7 277 7 252 -1 330 -10 92 -16 252 -10 262 8 13 19 10 50
-17z m-8340 -407 c5 -7 3 -8 -6 -3 -9 6 -10 2 -4 -16 12 -38 11 -192 -2 -196
-18 -6 -34 76 -24 126 4 25 6 51 3 58 -3 7 0 20 7 28 15 18 17 18 26 3z m0
-383 c-1 -25 -3 -45 -6 -45 -3 0 -5 -28 -5 -62 0 -93 -30 -143 -69 -115 -15
11 -14 21 14 114 16 56 30 109 30 117 0 11 18 29 36 36 0 0 0 -20 0 -45z
m5014 -1194 c58 -9 110 -19 115 -23 6 -3 32 -9 60 -13 27 -3 52 -10 55 -14 3
-4 31 -13 63 -20 31 -7 57 -16 57 -21 0 -5 13 -11 29 -15 16 -3 35 -13 41 -21
7 -7 16 -12 20 -9 4 3 29 -7 54 -21 25 -14 46 -23 46 -19 0 4 7 2 15 -5 8 -7
15 -10 15 -6 0 3 18 -5 39 -18 21 -14 41 -23 44 -20 3 3 8 -4 12 -15 3 -12 11
-21 16 -21 6 0 7 5 4 10 -3 6 -1 10 4 10 6 0 11 -4 11 -10 0 -5 6 -10 14 -10
7 0 19 -7 26 -15 7 -8 16 -12 21 -10 4 3 13 -4 19 -15 6 -11 15 -18 21 -15 5
4 9 1 9 -5 0 -6 3 -9 8 -7 4 3 22 -9 39 -27 18 -17 55 -45 83 -61 27 -17 50
-35 50 -42 0 -6 8 -14 18 -17 9 -4 46 -33 82 -66 35 -33 68 -60 72 -60 4 0 8
-9 8 -20 0 -10 10 -25 23 -31 25 -14 47 -41 41 -50 -2 -4 7 -14 21 -23 14 -9
25 -22 25 -29 0 -8 10 -23 23 -35 29 -27 47 -49 47 -59 1 -4 14 -24 30 -43 17
-19 30 -39 30 -45 0 -5 16 -25 35 -44 19 -19 32 -38 29 -42 -2 -4 4 -10 15
-14 10 -3 22 -17 25 -30 3 -13 15 -27 26 -30 11 -3 20 -15 20 -26 0 -10 5 -19
10 -19 6 0 10 -4 10 -10 0 -12 43 -77 75 -114 14 -16 25 -34 25 -40 1 -6 19
-29 40 -51 22 -22 43 -49 46 -60 4 -10 26 -39 50 -62 24 -23 44 -51 44 -62 0
-11 9 -25 19 -30 10 -6 29 -31 41 -55 11 -24 27 -49 34 -56 8 -6 20 -25 27
-43 7 -18 18 -37 24 -44 22 -26 30 -39 33 -53 4 -23 36 -84 47 -92 6 -4 7 -8
3 -8 -4 0 4 -21 17 -48 31 -62 49 -105 47 -114 -1 -5 3 -8 9 -8 5 0 7 -5 4
-10 -4 -6 -1 -17 5 -25 7 -8 10 -23 7 -34 -2 -10 -1 -25 3 -31 5 -7 4 -20 0
-29 -5 -9 -14 -49 -21 -89 -7 -40 -16 -75 -21 -78 -4 -3 -8 -20 -8 -39 0 -19
-5 -37 -10 -40 -6 -4 -8 -10 -5 -15 3 -5 -1 -22 -9 -38 -8 -16 -13 -32 -10
-35 4 -3 -4 -35 -16 -72 -12 -36 -23 -72 -24 -80 -1 -8 -5 -18 -9 -21 -4 -4
-7 -15 -7 -24 0 -9 -9 -35 -20 -58 -11 -23 -25 -64 -30 -90 -9 -49 -16 -74
-30 -107 -5 -11 -21 -55 -36 -98 -15 -43 -30 -80 -34 -82 -46 -28 -724 -24
-935 6 -38 6 -86 12 -105 15 -19 2 -48 9 -63 15 -15 7 -30 9 -33 6 -3 -3 -36
6 -72 20 -37 14 -85 31 -107 38 -22 7 -65 24 -95 37 -30 14 -71 32 -90 39 -55
20 -411 236 -450 273 -8 8 -27 20 -42 27 -16 7 -28 16 -28 21 0 4 -4 8 -9 8
-15 0 -211 132 -211 142 0 4 -6 8 -13 8 -7 0 -49 23 -92 52 -44 28 -99 61
-122 73 -23 13 -54 32 -70 42 -26 19 -81 46 -223 110 -30 13 -62 28 -70 32 -9
5 -30 12 -47 15 -18 4 -50 16 -72 27 -22 10 -47 19 -56 19 -9 0 -26 5 -38 12
-12 7 -26 13 -32 15 -5 1 -28 9 -50 17 -22 8 -48 15 -58 16 -9 0 -25 4 -35 10
-18 10 -98 33 -202 57 -36 8 -72 17 -80 20 -19 8 -11 6 -105 27 -44 9 -98 24
-120 31 -22 8 -55 16 -73 19 -18 2 -38 9 -45 14 -7 5 -31 13 -54 17 -24 4 -45
11 -49 16 -3 5 -11 9 -19 9 -8 0 -26 5 -42 12 -15 6 -32 12 -38 13 -5 1 -12 3
-15 4 -3 1 -21 4 -40 7 -19 2 -36 9 -38 14 -2 6 -15 10 -28 10 -13 0 -32 4
-42 9 -37 20 -109 51 -118 51 -5 0 -48 16 -94 36 -47 19 -92 38 -100 41 -8 3
-39 17 -68 29 -29 13 -55 24 -58 24 -3 0 -20 6 -37 14 -66 28 -92 37 -196 72
-58 19 -115 39 -126 44 -11 5 -60 25 -110 43 -49 19 -115 48 -147 65 -78 43
-188 123 -188 138 0 7 10 25 23 41 13 15 33 44 44 63 23 37 173 183 273 265
34 28 78 64 98 80 42 34 66 50 102 67 14 7 39 24 56 38 77 62 110 85 128 87
11 2 27 10 35 17 9 8 34 17 56 21 22 4 49 13 60 20 23 14 105 46 120 46 6 0
18 8 29 17 10 9 21 16 25 15 3 -2 20 1 36 6 130 40 174 52 181 49 5 -1 29 3
54 9 82 21 288 69 335 77 17 3 80 15 140 26 298 57 400 68 580 63 77 -2 145
-4 150 -3 6 0 51 2 100 4 50 2 119 0 155 -5 127 -17 210 -12 210 13 0 6 -7 20
-17 30 -15 17 -14 18 18 18 46 0 99 33 93 58 -4 14 4 22 35 34 43 17 51 36 26
62 -26 26 -18 44 23 49 88 10 295 3 392 -12z m-3305 -291 c-3 -5 -49 -44 -103
-86 -136 -109 -169 -140 -302 -282 -67 -71 -208 -259 -202 -269 2 -3 0 -9 -5
-12 -15 -11 -63 -90 -63 -105 0 -8 -4 -16 -8 -18 -11 -4 -99 -169 -116 -216
-52 -143 -66 -185 -86 -247 -13 -38 -22 -80 -22 -92 1 -13 -3 -23 -8 -23 -5 0
-9 -10 -9 -22 0 -13 -4 -43 -11 -67 -8 -32 -8 -47 1 -57 9 -11 8 -14 -5 -14
-11 0 -16 -10 -17 -32 -3 -122 -7 -179 -12 -184 -6 -6 0 -149 9 -224 3 -25 7
-63 10 -85 7 -70 16 -110 25 -116 6 -3 11 -16 12 -27 1 -12 5 -22 9 -22 4 0 7
-10 5 -22 -1 -17 3 -22 16 -20 12 2 17 -4 17 -23 0 -15 6 -33 13 -40 27 -31
37 -45 37 -51 0 -4 7 -14 15 -23 21 -22 56 -65 84 -100 13 -17 29 -31 36 -31
6 0 17 -11 23 -25 6 -14 16 -25 22 -25 15 0 40 -25 40 -39 0 -6 6 -11 13 -11
8 0 24 -9 37 -20 13 -11 27 -20 32 -20 4 0 16 -8 26 -17 36 -35 77 -68 84 -68
4 0 16 -8 28 -17 11 -10 20 -15 20 -12 0 3 13 -4 28 -15 16 -11 41 -23 56 -27
15 -3 30 -13 33 -20 3 -8 16 -14 29 -14 13 0 24 -4 24 -10 0 -5 5 -10 11 -10
6 0 24 -9 39 -20 16 -11 32 -20 37 -19 21 4 33 -2 33 -17 0 -9 7 -14 18 -12
10 1 29 -4 43 -13 13 -9 42 -22 64 -29 22 -7 51 -21 64 -31 13 -11 32 -19 42
-19 10 0 21 -4 24 -10 3 -5 23 -14 45 -20 21 -6 46 -17 54 -25 8 -9 19 -14 23
-13 13 4 83 -25 83 -35 0 -4 4 -5 10 -2 5 3 24 -2 42 -12 18 -9 38 -18 43 -18
32 -5 76 -19 81 -26 2 -5 27 -11 54 -15 28 -4 50 -10 50 -14 0 -5 19 -11 43
-15 23 -4 53 -12 67 -18 14 -6 35 -12 48 -13 13 -2 29 -8 36 -13 7 -6 44 -18
82 -27 38 -9 76 -18 84 -20 61 -15 255 -61 290 -68 8 -2 35 -7 60 -11 25 -4
50 -11 55 -15 9 -7 75 -21 120 -26 11 -1 27 -4 35 -7 8 -3 51 -13 95 -22 44
-9 116 -25 160 -35 189 -42 227 -49 240 -43 8 3 15 0 15 -5 0 -6 17 -14 38
-17 20 -3 57 -10 82 -16 25 -6 74 -18 110 -26 83 -18 88 -19 130 -34 56 -19
63 -21 99 -25 18 -2 39 -8 45 -14 7 -5 15 -7 18 -5 3 3 29 -3 57 -15 28 -11
61 -20 71 -20 11 0 20 -5 20 -12 0 -6 3 -9 6 -5 3 3 18 2 32 -3 15 -5 54 -16
87 -26 33 -9 65 -20 70 -24 6 -4 31 -13 58 -20 26 -7 50 -17 53 -21 3 -5 12
-9 21 -9 8 0 29 -6 46 -14 52 -23 71 -29 89 -31 10 -1 30 -11 45 -21 15 -10
32 -17 37 -16 4 2 18 -3 30 -11 11 -8 45 -20 74 -26 28 -7 52 -17 52 -22 0 -5
9 -9 20 -9 11 0 20 -5 20 -11 0 -5 3 -8 8 -6 4 3 39 -6 77 -19 39 -14 76 -26
83 -27 7 -2 18 -9 24 -15 7 -7 18 -12 25 -12 7 0 21 -4 31 -9 9 -5 52 -19 95
-32 43 -13 80 -26 83 -30 13 -22 -129 -210 -244 -323 l-60 -59 -74 -2 c-40 -1
-109 -7 -153 -13 -44 -6 -111 -14 -150 -18 -38 -3 -86 -8 -105 -10 -19 -2
-100 -6 -180 -8 -80 -2 -150 -5 -155 -6 -6 -1 -12 -2 -15 -1 -5 2 -243 11
-275 11 -11 0 -65 6 -120 14 -55 8 -131 18 -170 21 -38 4 -74 10 -80 13 -5 4
-28 8 -50 9 -44 2 -201 28 -225 37 -34 12 -168 33 -199 31 -12 -1 -21 2 -21 6
0 4 -20 7 -45 7 -24 0 -59 5 -77 10 -18 6 -61 13 -96 16 -35 3 -66 8 -71 10
-4 3 -34 8 -67 10 -66 6 -127 14 -164 21 -77 16 -228 34 -315 40 -94 5 -155 9
-335 20 -41 3 -86 7 -98 10 -13 2 -69 9 -125 15 -56 6 -108 15 -117 20 -9 5
-27 10 -41 12 -13 2 -28 6 -34 9 -5 3 -30 7 -55 8 -25 1 -74 8 -110 16 -36 7
-110 21 -165 30 -55 9 -111 20 -125 23 -14 3 -34 7 -45 8 -11 2 -33 5 -50 7
-29 3 -144 33 -175 45 -8 3 -26 7 -40 9 -14 2 -52 10 -85 18 -33 8 -80 17
-105 20 -25 4 -54 10 -65 15 -11 5 -40 11 -65 14 -179 18 -380 100 -525 214
-5 4 -17 11 -25 15 -19 9 -21 10 -205 132 -83 55 -188 123 -233 150 -62 38
-82 55 -82 72 0 12 -4 25 -10 28 -6 3 -10 15 -10 26 0 11 -7 31 -16 45 -13 18
-15 36 -10 75 4 31 3 56 -3 63 -8 9 -6 18 8 30 22 20 19 59 -9 146 -51 155
-58 219 -40 360 6 41 13 102 16 135 3 33 11 92 19 130 25 121 27 129 36 185 7
50 22 113 47 210 5 19 16 49 24 65 8 17 20 59 27 95 6 36 15 74 20 85 5 11 16
45 26 75 9 30 19 62 22 70 3 8 7 20 8 25 2 6 14 40 29 76 14 36 26 72 26 80 0
8 6 23 14 34 7 11 35 72 61 135 26 63 54 124 61 135 8 11 14 25 14 33 0 7 8
25 18 40 26 37 83 136 118 202 16 30 32 57 35 60 4 3 27 32 52 65 25 33 65 81
88 107 24 25 69 74 99 108 107 120 269 280 284 280 8 0 16 3 18 8 6 15 70 62
78 57 4 -2 15 4 25 15 10 11 24 20 32 20 7 0 13 4 13 8 0 4 17 14 38 21 20 7
55 21 78 31 58 26 186 56 329 76 11 1 74 6 140 9 66 4 121 8 123 10 8 7 152 3
147 -5z m-429 -1569 c32 -26 129 -82 140 -80 4 0 10 -4 13 -9 5 -8 85 -53 101
-57 6 -2 39 -15 65 -25 11 -4 49 -18 85 -30 83 -28 99 -34 185 -71 11 -5 47
-18 80 -28 74 -24 169 -63 255 -104 36 -17 70 -31 75 -33 6 -1 34 -13 64 -28
30 -14 60 -26 65 -26 6 0 58 -18 116 -39 58 -22 137 -49 175 -61 39 -11 79
-25 90 -30 11 -5 45 -16 75 -24 30 -8 107 -30 170 -49 104 -32 168 -48 240
-61 24 -5 77 -20 180 -50 25 -8 77 -23 115 -34 39 -12 88 -29 110 -38 22 -10
47 -19 55 -20 16 -2 215 -80 240 -94 8 -5 52 -27 97 -50 46 -23 85 -46 89 -51
3 -5 13 -9 22 -9 9 0 30 -13 47 -29 16 -16 50 -40 75 -53 25 -13 67 -38 94
-56 28 -18 54 -32 58 -32 4 0 16 -8 26 -17 10 -10 27 -24 38 -30 50 -33 96
-64 107 -73 7 -6 48 -34 92 -63 44 -28 82 -54 85 -57 12 -12 71 -50 142 -90
80 -45 111 -76 60 -60 -15 5 -48 15 -73 24 -26 8 -55 19 -65 24 -17 10 -173
58 -264 82 -19 6 -71 21 -115 34 -94 29 -160 47 -195 52 -32 5 -51 9 -70 17
-14 5 -56 16 -195 47 -27 6 -62 12 -77 13 -16 1 -28 5 -28 8 0 6 -43 16 -100
24 -8 1 -34 5 -57 9 -24 4 -44 7 -45 6 -2 -1 -16 4 -33 10 -16 6 -64 18 -105
26 -83 15 -96 18 -155 33 -54 13 -101 23 -182 36 -18 3 -33 10 -33 14 0 5 -24
11 -52 14 -73 9 -103 15 -178 36 -36 11 -101 27 -145 36 -44 10 -132 34 -195
54 -63 21 -133 42 -155 48 -50 14 -153 50 -180 63 -11 5 -49 21 -85 35 -36 15
-69 31 -74 36 -6 5 -16 9 -23 9 -8 0 -47 16 -87 35 -41 19 -81 35 -89 35 -8 0
-17 6 -20 13 -2 7 -17 13 -33 15 -15 1 -35 8 -43 16 -9 8 -36 24 -61 35 -40
18 -59 28 -120 63 -8 4 -22 11 -30 15 -29 13 -176 108 -220 143 -76 59 -217
220 -194 220 4 0 0 6 -10 13 -9 7 -18 19 -20 27 -1 8 -7 24 -12 35 -15 27 -17
114 -6 161 6 22 13 51 16 67 6 25 9 26 29 16 12 -7 36 -24 53 -38z m3779
-1671 c3 -5 1 -10 -4 -10 -6 0 -11 5 -11 10 0 6 2 10 4 10 3 0 8 -4 11 -10z
m995 -290 c69 -5 203 -10 298 -10 l173 0 -31 -29 c-43 -39 -79 -47 -200 -45
-131 2 -346 43 -465 88 l-40 15 70 -4 c39 -3 126 -10 195 -15z"/>
<path d="M6925 13220 c-11 -5 -54 -21 -95 -38 -41 -16 -91 -36 -110 -43 -75
-28 -124 -64 -136 -100 -6 -19 -17 -50 -23 -69 -7 -19 -14 -39 -15 -45 -2 -5
-6 -21 -10 -35 -4 -14 -10 -57 -14 -97 l-8 -72 65 5 c36 3 67 6 70 6 4 0 11
-1 16 -2 13 -2 100 -1 240 3 61 2 120 0 132 -4 13 -5 25 -4 29 2 5 9 51 8 89
-1 6 -1 15 -2 20 -1 6 1 42 3 80 4 l70 2 -1 30 c-1 71 -20 181 -34 200 -4 6
-15 33 -25 62 -11 31 -27 56 -42 64 -13 7 -23 16 -23 19 0 23 -94 90 -127 90
-7 0 -16 6 -19 14 -6 15 -93 19 -129 6z"/>
<path d="M8718 13144 c-27 -5 -61 -40 -53 -55 3 -4 8 -65 11 -135 4 -71 9
-132 13 -136 7 -8 74 -18 141 -22 19 -1 41 -5 48 -10 6 -4 12 -4 12 1 0 4 43
8 95 8 72 0 94 3 90 13 -2 6 0 12 4 12 5 0 12 -7 15 -16 5 -12 9 -14 20 -5 7
6 35 13 62 16 27 2 72 7 99 10 28 4 52 6 55 4 10 -5 50 22 50 34 0 8 -4 7 -11
-3 -9 -12 -10 -11 -6 7 3 12 -1 27 -9 34 -8 6 -14 17 -15 23 0 11 -113 96
-128 96 -5 0 -14 7 -21 15 -13 15 -67 45 -82 45 -5 0 -25 8 -46 17 -20 9 -41
17 -47 18 -5 1 -23 7 -39 14 -30 12 -213 23 -258 15z"/>
<path d="M7816 4843 c-2 -2 -14 -5 -27 -7 -82 -10 -189 -58 -230 -103 -25 -26
-31 -43 -44 -120 -8 -50 -23 -83 -38 -83 -8 0 -14 -6 -14 -12 0 -7 -4 -21 -8
-31 -6 -15 -4 -17 19 -11 32 8 32 8 2 -88 l-24 -77 44 -40 c27 -24 47 -52 50
-71 4 -16 10 -30 13 -30 4 0 15 -19 25 -42 21 -45 36 -65 114 -149 56 -60 90
-75 165 -71 43 2 84 28 89 56 2 11 20 28 41 39 21 11 41 27 44 36 4 9 21 30
38 46 44 41 54 76 42 150 -5 33 -8 94 -7 135 4 135 2 184 -10 230 -6 25 -13
55 -15 68 -2 21 -15 38 -77 104 -10 10 -20 18 -23 18 -3 0 -19 10 -35 22 -26
19 -123 41 -134 31z"/>
<path d="M9460 4701 c-14 -4 -34 -7 -45 -6 -11 0 -22 -3 -25 -7 -3 -4 -17 -9
-30 -11 -63 -12 -170 -66 -200 -101 -14 -17 -32 -38 -42 -47 -9 -9 -19 -28
-23 -41 -4 -12 -11 -27 -15 -33 -4 -5 -10 -32 -14 -58 -3 -27 -13 -55 -21 -63
-8 -9 -15 -21 -14 -27 0 -7 3 -6 6 2 4 10 9 8 18 -9 12 -22 10 -43 -14 -121
-9 -29 -1 -55 26 -84 10 -11 19 -29 19 -40 4 -57 15 -100 34 -129 11 -19 20
-40 20 -47 0 -8 18 -32 40 -54 21 -22 39 -46 40 -53 0 -7 5 -10 10 -7 6 3 10
-1 10 -10 0 -8 8 -18 18 -22 9 -3 27 -17 38 -30 35 -39 164 -49 236 -19 22 10
219 210 235 239 15 27 36 80 52 128 12 38 6 139 -10 170 -11 21 -12 62 -4 114
18 121 -4 211 -68 271 -55 53 -102 79 -166 93 -58 12 -74 13 -111 2z"/>
</g>
</svg>
